<?xml version="1.0" encoding="utf-8"?>
<!-- Generator: Adobe Illustrator 17.0.0, SVG Export Plug-In . SVG Version: 6.00 Build 0)  -->
<!DOCTYPE svg PUBLIC "-//W3C//DTD SVG 1.1//EN" "http://www.w3.org/Graphics/SVG/1.1/DTD/svg11.dtd">
<svg version="1.1" id="Calque_1" xmlns="http://www.w3.org/2000/svg" xmlns:xlink="http://www.w3.org/1999/xlink" x="0px" y="0px"
	 width="200px" height="200px" viewBox="0 0 200 200" enable-background="new 0 0 200 200" xml:space="preserve">
<g>
	<g>
		<g>
			<g>
				<g>
					<polygon fill="#F2F2F2" points="200,176.481 200,190.479 189.76,194.191 189.76,194.196 189.623,194.242 189.552,194.27 
						189.496,194.289 189.491,194.289 189.054,194.45 189.298,194.05 189.298,194.045 189.304,194.04 189.304,194.035 
						189.445,193.81 					"/>
				</g>
			</g>
			<g>
				<g>
					<polygon fill="#F2F2F2" points="50.043,172.337 49.606,172.497 49.55,172.516 0,190.479 0,176.471 19.963,143.696 
						20.029,143.587 20.038,143.578 20.038,143.574 20.043,143.574 20.283,143.173 20.617,143.503 20.621,143.503 20.626,143.512 
						20.988,143.865 49.672,171.97 49.705,172.008 					"/>
				</g>
			</g>
		</g>
	</g>
	<g>
		<g>
			<g>
				<g>
					<polygon fill="#6E6F72" points="119.998,170.667 119.927,171.128 119.923,171.128 119.913,171.199 115.365,200 109.998,200 
						107.74,175.963 107.707,175.625 107.665,175.159 108.102,174.999 119.226,170.95 119.499,170.851 119.551,170.832 					"/>
				</g>
			</g>
		</g>
		<g>
			<g>
				<g>
					<polygon fill="#6E6F72" points="115.369,0 112.298,19.455 112.298,19.464 112.26,19.704 112.256,19.714 112.077,20.861 
						112.077,20.866 112.072,20.871 112.002,21.332 111.959,20.871 111.959,20.866 111.917,20.424 111.823,19.436 111.823,19.432 
						109.998,0 					"/>
				</g>
			</g>
		</g>
	</g>
	<g>
		<g>
			<g>
				<g>
					<polygon fill="#939598" points="200,190.479 200,198.194 191.236,195.197 190.159,194.826 189.764,194.694 189.637,194.652 
						189.52,194.609 189.51,194.605 189.496,194.6 189.054,194.45 189.491,194.289 189.496,194.289 189.552,194.27 189.623,194.242 
						189.76,194.196 189.76,194.191 					"/>
				</g>
			</g>
			<g>
				<g>
					<polygon fill="#939598" points="64.969,200 5.287,200 0,198.194 0,190.479 49.55,172.516 49.606,172.497 50.043,172.337 
						50.265,172.746 50.269,172.751 					"/>
				</g>
			</g>
		</g>
		<g>
			<g>
				<g>
					<polygon fill="#939598" points="78.469,25.015 78.026,24.864 77.961,24.841 77.909,24.822 77.81,24.789 5.301,0 64.969,0 
						77.782,23.74 77.782,23.745 78.139,24.408 78.144,24.408 78.205,24.53 78.247,24.601 					"/>
				</g>
			</g>
		</g>
	</g>
	<g>
		<g>
			<g>
				<g>
					<polygon fill="#BDBEC0" points="101.333,136.002 165.334,61.334 125.334,117.334 					"/>
				</g>
			</g>
		</g>
	</g>
	<g>
		<g>
			<g>
				<g>
					<polygon fill="#6E6F72" points="74.366,200 64.969,200 50.269,172.751 50.265,172.746 50.043,172.337 50.387,172.017 
						66.798,156.73 66.808,156.721 66.869,156.664 67.212,156.344 67.287,156.805 67.287,156.81 67.297,156.857 67.306,156.904 
						67.306,156.909 					"/>
				</g>
			</g>
		</g>
		<g>
			<g>
				<g>
					<polygon fill="#6E6F72" points="78.469,25.015 78.247,24.601 78.205,24.53 78.144,24.408 78.139,24.408 77.782,23.745 
						77.782,23.74 64.969,0 74.366,0 78.233,23.59 78.238,23.594 78.351,24.285 78.351,24.291 78.384,24.493 78.393,24.554 					"/>
				</g>
			</g>
		</g>
	</g>
	<g>
		<g>
			<g>
				<g>
					<polygon fill="#E7E7E8" points="20.282,143.176 67.21,156.346 50.041,172.339 					"/>
				</g>
			</g>
		</g>
	</g>
	<g>
		<g>
			<g>
				<g>
					<polygon fill="#F2F2F2" points="107.665,175.159 107.425,175.568 107.255,175.86 93.121,200 74.366,200 67.306,156.909 
						67.306,156.904 67.297,156.857 67.287,156.81 67.287,156.805 67.212,156.344 67.636,156.542 67.64,156.542 67.725,156.584 
						67.73,156.584 69.743,157.52 107.236,174.957 107.236,174.962 					"/>
				</g>
			</g>
		</g>
		<g>
			<g>
				<g>
					<polygon fill="#F2F2F2" points="93.116,0 78.84,24.38 78.84,24.384 78.765,24.512 78.746,24.54 78.704,24.615 78.469,25.015 
						78.393,24.554 78.384,24.493 78.351,24.291 78.351,24.285 78.238,23.594 78.233,23.59 74.366,0 					"/>
				</g>
			</g>
		</g>
	</g>
	<g>
		<g>
			<g>
				<g>
					<polygon fill="#939598" points="200,132.115 200,146.231 144.608,154.58 144.603,154.58 144.505,154.594 144.477,154.599 
						144.462,154.599 144.001,154.67 144.241,154.27 144.241,154.265 144.246,154.265 144.288,154.195 144.316,154.147 
						167.704,115.158 167.708,115.158 167.76,115.073 167.76,115.068 168,114.669 168.409,114.894 168.414,114.894 168.433,114.904 
											"/>
				</g>
			</g>
			<g>
				<g>
					<polygon fill="#939598" points="20.283,143.173 19.822,143.244 19.812,143.244 19.718,143.258 19.671,143.268 19.511,143.291 
						0,146.231 0,132.115 18.97,142.459 19.601,142.802 19.605,142.802 19.714,142.863 19.869,142.948 19.873,142.948 					"/>
				</g>
			</g>
		</g>
	</g>
	<g>
		<g>
			<g>
				<g>
					<polygon fill="#F2F2F2" points="88,64 112,21.333 122.667,66.667 					"/>
				</g>
			</g>
		</g>
	</g>
	<g>
		<g>
			<g>
				<g>
					<polygon fill="#A8AAAC" points="200,198.194 200,200 198.443,200 191.044,195.626 191.006,195.602 189.713,194.84 
						189.576,194.76 189.515,194.723 189.459,194.689 189.454,194.685 189.054,194.45 189.496,194.6 189.51,194.605 189.52,194.609 
						189.637,194.652 189.764,194.694 190.159,194.826 191.236,195.197 					"/>
				</g>
			</g>
			<g>
				<g>
					<polygon fill="#A8AAAC" points="5.287,200 0,200 0,198.194 					"/>
				</g>
			</g>
		</g>
		<g>
			<g>
				<g>
					<polygon fill="#A8AAAC" points="200,0 200,0.913 198.452,0 					"/>
				</g>
			</g>
			<g>
				<g>
					<polygon fill="#A8AAAC" points="78.469,25.015 78.083,25.278 78.078,25.278 77.979,25.349 62.254,36.04 62.25,36.04 
						61.337,36.666 61.323,36.671 60.937,36.934 60.538,36.699 59.841,36.285 59.837,36.285 0,0.917 0,0 5.301,0 77.81,24.789 
						77.909,24.822 77.961,24.841 78.026,24.864 					"/>
				</g>
			</g>
		</g>
	</g>
	<g>
		<g>
			<g>
				<g>
					<polygon fill="#818285" points="109.998,200 93.121,200 107.255,175.86 107.425,175.568 107.665,175.159 107.707,175.625 
						107.74,175.963 					"/>
				</g>
			</g>
		</g>
		<g>
			<g>
				<g>
					<polygon fill="#818285" points="112.002,21.332 111.536,21.383 111.531,21.383 111.428,21.393 109.499,21.605 109.49,21.609 
						79.051,24.949 78.934,24.963 78.929,24.963 78.469,25.015 78.704,24.615 78.746,24.54 78.765,24.512 78.84,24.384 78.84,24.38 
						93.116,0 109.998,0 111.823,19.432 111.823,19.436 111.917,20.424 111.959,20.866 111.959,20.871 					"/>
				</g>
			</g>
		</g>
	</g>
	<g>
		<g>
			<g>
				<g>
					<polygon fill="#D2D3D4" points="200,121.386 200,132.115 168.433,114.904 168.414,114.894 168.409,114.894 168,114.669 
						181.001,101.668 181.006,101.668 181.006,101.663 181.335,101.334 181.655,101.677 181.664,101.686 181.711,101.738 					"/>
				</g>
			</g>
			<g>
				<g>
					<polygon fill="#D2D3D4" points="20.283,143.173 19.873,142.948 19.869,142.948 19.714,142.863 19.605,142.802 19.601,142.802 
						18.97,142.459 0,132.115 0,121.386 19.276,142.092 19.605,142.444 19.897,142.76 19.949,142.816 19.963,142.83 					"/>
				</g>
			</g>
		</g>
	</g>
	<g>
		<g>
			<g>
				<g>
					<polygon fill="#E7E7E8" points="67.21,156.346 120,170.668 107.663,175.161 					"/>
				</g>
			</g>
		</g>
	</g>
	<g>
		<g>
			<g>
				<g>
					<polygon fill="#BDBEC0" points="195.103,200 191.246,200 189.487,195.546 189.449,195.446 189.336,195.16 189.28,195.023 
						189.228,194.887 189.224,194.882 189.054,194.45 189.398,194.765 189.445,194.807 189.51,194.868 189.849,195.179 
						189.915,195.24 190.728,195.983 					"/>
				</g>
			</g>
		</g>
		<g>
			<g>
				<g>
					<polygon fill="#BDBEC0" points="200,4.492 200,22.169 191.246,0 195.108,0 					"/>
				</g>
			</g>
			<g>
				<g>
					<polygon fill="#BDBEC0" points="30.052,32.071 29.605,32.221 29.544,32.244 7.606,39.709 7.601,39.709 7.446,39.761 
						7.004,39.912 6.835,39.479 0,22.174 0,4.492 29.657,31.708 29.709,31.755 					"/>
				</g>
			</g>
		</g>
	</g>
	<g>
		<g>
			<g>
				<g>
					<polygon fill="#A8AAAC" points="168.001,114.668 165.334,61.334 181.334,101.334 					"/>
				</g>
			</g>
		</g>
	</g>
	<g>
		<g>
			<g>
				<g>
					<polygon fill="#F2F2F2" points="60.939,36.934 78.466,25.015 112,21.333 					"/>
				</g>
			</g>
		</g>
	</g>
	<g>
		<g>
			<g>
				<g>
					<polygon fill="#A8AAAC" points="101.333,136.002 122.667,66.667 165.334,61.334 					"/>
				</g>
			</g>
		</g>
	</g>
	<g>
		<g>
			<g>
				<g>
					<polygon fill="#F2F2F2" points="191.246,200 188.861,200 189.012,195.626 189.031,195.066 189.035,194.986 189.035,194.934 
						189.04,194.92 189.054,194.45 189.224,194.882 189.228,194.887 189.28,195.023 189.336,195.16 189.449,195.446 
						189.487,195.546 					"/>
				</g>
			</g>
		</g>
		<g>
			<g>
				<g>
					<polygon fill="#F2F2F2" points="200,22.169 200,43.929 187.695,50.989 187.69,50.989 187.572,51.055 187.572,51.059 
						187.516,51.088 187.511,51.092 187.502,51.097 187.093,51.332 187.107,50.867 187.107,50.862 187.112,50.777 187.121,50.514 
						187.154,49.517 187.154,49.507 188.861,0 191.246,0 					"/>
				</g>
			</g>
			<g>
				<g>
					<polygon fill="#F2F2F2" points="7.004,39.912 6.595,40.147 0,43.929 0,22.174 6.835,39.479 					"/>
				</g>
			</g>
		</g>
	</g>
	<g>
		<g>
			<g>
				<g>
					<polygon fill="#6E6F72" points="7.998,96.001 55.999,66.667 53.332,90.668 					"/>
				</g>
			</g>
		</g>
	</g>
	<g>
		<g>
			<g>
				<g>
					<polygon fill="#BDBEC0" points="7.002,39.913 30.05,32.072 55.999,66.667 					"/>
				</g>
			</g>
		</g>
	</g>
	<g>
		<g>
			<g>
				<g>
					<polygon fill="#6E6F72" points="30.05,32.072 60.939,36.934 55.999,66.667 					"/>
				</g>
			</g>
		</g>
	</g>
	<g>
		<g>
			<g>
				<g>
					<polygon fill="#D2D3D4" points="112,21.333 165.334,61.334 122.667,66.667 					"/>
				</g>
			</g>
		</g>
	</g>
	<g>
		<g>
			<g>
				<g>
					<polygon fill="#939598" points="88,64 60.939,36.934 112,21.333 					"/>
				</g>
			</g>
		</g>
	</g>
	<g>
		<g>
			<g>
				<g>
					<polygon fill="#E7E7E8" points="53.332,90.668 55.999,66.667 88,64 					"/>
				</g>
			</g>
		</g>
	</g>
	<g>
		<g>
			<g>
				<g>
					<polygon fill="#D2D3D4" points="101.333,136.002 88,64 122.667,66.667 					"/>
				</g>
			</g>
		</g>
	</g>
	<g>
		<g>
			<g>
				<g>
					<polygon fill="#939598" points="200,43.929 200,54.206 187.902,51.511 187.775,51.483 187.553,51.436 187.549,51.436 
						187.093,51.332 187.502,51.097 187.511,51.092 187.516,51.088 187.572,51.059 187.572,51.055 187.69,50.989 187.695,50.989 
											"/>
				</g>
			</g>
			<g>
				<g>
					<polygon fill="#939598" points="55.998,66.667 55.542,66.563 55.538,66.563 55.34,66.521 55.293,66.512 55.185,66.483 
						55.18,66.483 54.343,66.3 54.338,66.295 0,54.206 0,43.929 6.595,40.147 7.004,39.912 7.413,40.137 7.564,40.217 
						54.498,65.848 54.503,65.848 55.001,66.121 55.462,66.375 55.523,66.408 55.561,66.427 55.589,66.441 					"/>
				</g>
			</g>
		</g>
	</g>
	<g>
		<g>
			<g>
				<g>
					<polygon fill="#818285" points="55.999,66.667 60.939,36.935 88,64 					"/>
				</g>
			</g>
		</g>
	</g>
	<g>
		<g>
			<g>
				<g>
					<polygon fill="#818285" points="198.443,200 195.103,200 190.728,195.983 189.915,195.24 189.849,195.179 189.51,194.868 
						189.445,194.807 189.398,194.765 189.054,194.45 189.454,194.685 189.459,194.689 189.515,194.723 189.576,194.76 
						189.713,194.84 191.006,195.602 191.044,195.626 					"/>
				</g>
			</g>
		</g>
		<g>
			<g>
				<g>
					<polygon fill="#818285" points="200,0.913 200,4.492 195.108,0 198.452,0 					"/>
				</g>
			</g>
			<g>
				<g>
					<polygon fill="#818285" points="60.477,36.864 60.477,36.859 59.677,36.737 30.72,32.174 30.513,32.141 30.052,32.071 
						29.709,31.755 29.657,31.708 0,4.492 0,0.917 59.837,36.285 59.841,36.285 60.538,36.699 60.937,36.934 					"/>
				</g>
			</g>
		</g>
	</g>
	<g>
		<g>
			<g>
				<g>
					<polygon fill="#939598" points="200,75.928 200,91.286 182.751,100.572 181.763,101.103 181.754,101.108 181.335,101.334 
						181.161,100.901 181.161,100.891 165.874,62.687 165.874,62.678 165.577,61.944 165.54,61.855 165.531,61.827 165.507,61.77 
						165.333,61.333 165.766,61.516 165.77,61.516 165.813,61.535 165.921,61.582 165.945,61.591 					"/>
				</g>
			</g>
			<g>
				<g>
					<polygon fill="#939598" points="15.997,82.669 15.574,82.895 15.466,82.956 15.184,83.107 0,91.282 0,75.933 14.963,82.232 
						14.968,82.236 15.443,82.434 15.556,82.486 					"/>
				</g>
			</g>
		</g>
	</g>
	<g>
		<g>
			<g>
				<g>
					<polygon fill="#E7E7E8" points="160.023,200 122.242,200 143.606,155.497 143.715,155.267 143.757,155.178 143.789,155.112 
						143.799,155.093 144.001,154.67 144.156,155.112 144.161,155.121 144.161,155.126 144.223,155.295 144.321,155.582 
						144.768,156.843 					"/>
				</g>
			</g>
		</g>
		<g>
			<g>
				<g>
					<polygon fill="#E7E7E8" points="167.652,21.567 167.148,21.567 112.792,21.336 112.519,21.332 112.002,21.332 112.204,20.913 
						112.204,20.908 112.227,20.861 112.397,20.513 112.397,20.509 112.707,19.864 112.707,19.86 122.242,0 160.027,0 
						167.045,19.85 167.389,20.814 167.389,20.819 167.487,21.097 167.497,21.125 					"/>
				</g>
			</g>
		</g>
	</g>
	<g>
		<g>
			<g>
				<g>
					<polygon fill="#939598" points="67.21,156.346 53.332,90.668 101.333,136.002 					"/>
				</g>
			</g>
		</g>
	</g>
	<g>
		<g>
			<g>
				<g>
					<polygon fill="#F2F2F2" points="174.863,197.737 174.726,198.189 174.585,198.65 174.176,200 165.963,200 165.192,190.094 
						165.178,189.919 165.14,189.431 165.648,189.863 165.888,190.066 174.505,197.432 					"/>
				</g>
			</g>
		</g>
		<g>
			<g>
				<g>
					<polygon fill="#F2F2F2" points="174.176,0 168.024,20.335 168.024,20.339 167.883,20.81 167.788,21.12 167.788,21.125 
						167.784,21.125 167.652,21.567 167.614,21.106 167.614,21.097 167.549,20.274 167.549,20.264 167.511,19.76 165.968,0 					"/>
				</g>
			</g>
		</g>
	</g>
	<g>
		<g>
			<g>
				<g>
					<polygon fill="#D2D3D4" points="67.21,156.346 101.333,136.002 120,170.668 					"/>
				</g>
			</g>
		</g>
	</g>
	<g>
		<g>
			<g>
				<g>
					<polygon fill="#818285" points="144.001,154.67 143.799,155.093 143.789,155.112 143.757,155.178 143.715,155.267 
						143.606,155.497 122.242,200 115.365,200 119.913,171.199 119.923,171.128 119.927,171.128 119.998,170.667 120.388,170.408 
						120.393,170.404 143.235,155.182 143.54,154.98 143.597,154.938 143.606,154.933 143.611,154.928 					"/>
				</g>
			</g>
		</g>
		<g>
			<g>
				<g>
					<polygon fill="#818285" points="122.242,0 112.707,19.86 112.707,19.864 112.397,20.509 112.397,20.513 112.227,20.861 
						112.204,20.908 112.204,20.913 112.002,21.332 112.072,20.871 112.077,20.866 112.077,20.861 112.256,19.714 112.26,19.704 
						112.298,19.464 112.298,19.455 115.369,0 					"/>
				</g>
			</g>
		</g>
	</g>
	<g>
		<g>
			<g>
				<g>
					<polygon fill="#818285" points="101.333,136.002 125.334,117.334 144,154.668 					"/>
				</g>
			</g>
		</g>
	</g>
	<g>
		<g>
			<g>
				<g>
					<polygon fill="#CBCBCB" points="125.334,117.334 168.001,114.668 144,154.668 					"/>
				</g>
			</g>
		</g>
	</g>
	<g>
		<g>
			<g>
				<g>
					<polygon fill="#818285" points="20.282,143.176 7.998,96.001 53.332,90.668 					"/>
				</g>
			</g>
		</g>
	</g>
	<g>
		<g>
			<g>
				<g>
					<polygon fill="#A8AAAC" points="144,154.668 189.052,194.448 165.142,189.429 					"/>
				</g>
			</g>
		</g>
	</g>
	<g>
		<g>
			<g>
				<g>
					<polygon fill="#D2D3D4" points="20.282,143.176 53.332,90.668 67.21,156.346 					"/>
				</g>
			</g>
		</g>
	</g>
	<g>
		<g>
			<g>
				<g>
					<polygon fill="#939598" points="53.332,90.668 88,64 101.333,136.002 					"/>
				</g>
			</g>
		</g>
	</g>
	<g>
		<g>
			<g>
				<g>
					<polygon fill="#CBCBCB" points="200,97.599 200,121.386 181.711,101.738 181.664,101.686 181.655,101.677 181.335,101.334 
						181.796,101.24 181.876,101.225 182.911,101.018 					"/>
				</g>
			</g>
			<g>
				<g>
					<polygon fill="#CBCBCB" points="20.283,143.173 19.963,142.83 19.949,142.816 19.897,142.76 19.605,142.444 19.276,142.092 
						0,121.386 0,97.599 7.535,96.093 7.54,96.089 7.996,95.999 8.114,96.451 8.119,96.46 20.033,142.219 20.118,142.548 
						20.118,142.553 20.123,142.553 20.165,142.717 20.165,142.722 					"/>
				</g>
			</g>
		</g>
	</g>
	<g>
		<g>
			<g>
				<g>
					<polygon fill="#6E6F72" points="165.334,61.334 167.65,21.568 187.093,51.333 					"/>
				</g>
			</g>
		</g>
	</g>
	<g>
		<g>
			<g>
				<g>
					<polygon fill="#818285" points="125.334,117.334 165.334,61.334 168.001,114.668 					"/>
				</g>
			</g>
		</g>
	</g>
	<g>
		<g>
			<g>
				<g>
					<polygon fill="#E7E7E8" points="200,91.286 200,97.599 182.911,101.018 181.876,101.225 181.796,101.24 181.335,101.334 
						181.754,101.108 181.763,101.103 182.751,100.572 					"/>
				</g>
			</g>
			<g>
				<g>
					<polygon fill="#E7E7E8" points="15.997,82.669 15.758,83.069 15.753,83.078 15.522,83.459 8.519,95.134 8.514,95.138 
						8.302,95.491 8.236,95.595 7.996,95.999 7.54,96.089 7.535,96.093 0,97.599 0,91.282 15.184,83.107 15.466,82.956 
						15.574,82.895 					"/>
				</g>
			</g>
		</g>
	</g>
	<g>
		<g>
			<g>
				<g>
					<polygon fill="#818285" points="165.963,200 160.023,200 144.768,156.843 144.321,155.582 144.223,155.295 144.161,155.126 
						144.161,155.121 144.156,155.112 144.001,154.67 144.241,155.069 144.246,155.069 144.265,155.107 144.293,155.149 
						144.824,156.024 145.191,156.626 164.895,189.031 164.9,189.035 165.14,189.431 165.178,189.919 165.192,190.094 					"/>
				</g>
			</g>
		</g>
		<g>
			<g>
				<g>
					<polygon fill="#818285" points="167.652,21.567 167.497,21.125 167.487,21.097 167.389,20.819 167.389,20.814 167.045,19.85 
						160.027,0 165.968,0 167.511,19.76 167.549,20.264 167.549,20.274 167.614,21.097 167.614,21.106 					"/>
				</g>
			</g>
		</g>
	</g>
	<g>
		<g>
			<g>
				<g>
					<polygon fill="#6E6F72" points="189.054,194.45 189.04,194.92 189.035,194.934 189.035,194.986 189.031,195.066 
						189.012,195.626 188.861,200 175.38,200 175.075,198.664 174.966,198.198 174.863,197.737 175.319,197.634 175.319,197.629 
						187.963,194.704 188.49,194.581 188.579,194.558 188.598,194.558 188.598,194.553 					"/>
				</g>
			</g>
		</g>
		<g>
			<g>
				<g>
					<polygon fill="#6E6F72" points="188.861,0 187.154,49.507 187.154,49.517 187.121,50.514 187.112,50.777 187.107,50.862 
						187.107,50.867 187.093,51.332 186.989,50.871 186.984,50.853 186.792,50.006 186.787,50.001 186.683,49.54 175.38,0 					"/>
				</g>
			</g>
		</g>
	</g>
	<g>
		<g>
			<g>
				<g>
					<polygon fill="#818285" points="175.38,200 174.176,200 174.585,198.65 174.726,198.189 174.863,197.737 174.966,198.198 
						175.075,198.664 					"/>
				</g>
			</g>
		</g>
		<g>
			<g>
				<g>
					<polygon fill="#818285" points="186.834,50.937 186.834,50.933 186.646,50.651 186.646,50.646 186.354,50.204 186.354,50.199 
						168.08,22.225 168.08,22.221 167.911,21.962 167.906,21.958 167.652,21.567 167.784,21.125 167.788,21.125 167.788,21.12 
						167.883,20.81 168.024,20.339 168.024,20.335 174.176,0 175.38,0 186.683,49.54 186.787,50.001 186.792,50.006 186.984,50.853 
						186.989,50.871 187.093,51.332 					"/>
				</g>
			</g>
		</g>
	</g>
	<g>
		<g>
			<g>
				<g>
					<polygon fill="#F2F2F2" points="7.998,96.001 15.998,82.667 55.999,66.667 					"/>
				</g>
			</g>
		</g>
	</g>
	<g>
		<g>
			<g>
				<g>
					<polygon fill="#818285" points="112,21.333 167.65,21.568 165.334,61.334 					"/>
				</g>
			</g>
		</g>
	</g>
	<g>
		<g>
			<g>
				<g>
					<polygon fill="#939598" points="200,54.206 200,65.321 187.652,51.939 187.422,51.69 187.412,51.68 187.412,51.676 
						187.408,51.676 187.093,51.332 187.549,51.436 187.553,51.436 187.775,51.483 187.902,51.511 					"/>
				</g>
			</g>
			<g>
				<g>
					<polygon fill="#939598" points="55.998,66.667 55.566,66.841 55.547,66.845 55.505,66.864 55.429,66.892 55.223,66.977 
						53.397,67.706 53.392,67.711 16.435,82.495 15.997,82.669 15.678,82.326 15.668,82.311 15.222,81.827 0,65.326 0,54.206 
						54.338,66.295 54.343,66.3 55.18,66.483 55.185,66.483 55.293,66.512 55.34,66.521 55.538,66.563 55.542,66.563 					"/>
				</g>
			</g>
		</g>
	</g>
	<g>
		<g>
			<g>
				<g>
					<polygon fill="#BDBEC0" points="200,146.231 200,176.481 189.445,193.81 189.304,194.035 189.304,194.04 189.298,194.045 
						189.298,194.05 189.054,194.45 188.701,194.139 188.701,194.135 188.692,194.129 188.617,194.064 188.339,193.819 
						145.191,155.718 145.187,155.714 144.726,155.31 144.462,155.079 144.368,154.994 144.354,154.98 144.349,154.976 
						144.001,154.67 144.462,154.599 144.477,154.599 144.505,154.594 144.603,154.58 144.608,154.58 					"/>
				</g>
			</g>
			<g>
				<g>
					<polygon fill="#BDBEC0" points="20.283,143.173 20.043,143.574 20.038,143.574 20.038,143.578 20.029,143.587 19.963,143.696 
						0,176.471 0,146.231 19.511,143.291 19.671,143.268 19.718,143.258 19.812,143.244 19.822,143.244 					"/>
				</g>
			</g>
		</g>
	</g>
	<g>
		<g>
			<g>
				<g>
					<polygon fill="#BDBEC0" points="101.333,136.002 144,154.668 120,170.668 					"/>
				</g>
			</g>
		</g>
	</g>
	<g>
		<g>
			<g>
				<g>
					<polygon fill="#818285" points="200,65.321 200,75.928 165.945,61.591 165.921,61.582 165.813,61.535 165.77,61.516 
						165.766,61.516 165.333,61.333 165.756,61.14 165.756,61.135 165.761,61.135 165.817,61.111 165.911,61.065 165.916,61.065 
						186.66,51.53 186.669,51.53 186.669,51.525 187.093,51.332 187.408,51.676 187.412,51.676 187.412,51.68 187.422,51.69 
						187.652,51.939 					"/>
				</g>
			</g>
			<g>
				<g>
					<polygon fill="#818285" points="15.997,82.669 15.556,82.486 15.443,82.434 14.968,82.236 14.963,82.232 0,75.933 0,65.326 
						15.222,81.827 15.668,82.311 15.678,82.326 					"/>
				</g>
			</g>
		</g>
	</g>
	<g>
		<g>
			<g>
				<g>
					<polygon fill="#E7E7E8" points="165.142,189.429 189.052,194.448 174.862,197.74 					"/>
				</g>
			</g>
		</g>
	</g>
</g>
<rect x="-5.133" y="-6.335" opacity="0.95" fill="#FFFFFF" width="211.579" height="212.081"/>
</svg>
