<?xml version="1.0" encoding="utf-8"?>
<!-- Generator: Adobe Illustrator 16.0.0, SVG Export Plug-In . SVG Version: 6.00 Build 0)  -->
<!DOCTYPE svg PUBLIC "-//W3C//DTD SVG 1.1//EN" "http://www.w3.org/Graphics/SVG/1.1/DTD/svg11.dtd">
<svg version="1.1" id="Calque_1" xmlns="http://www.w3.org/2000/svg" xmlns:xlink="http://www.w3.org/1999/xlink" x="0px" y="0px"
	 width="32.5px" height="40.25px" viewBox="0 0 32.5 40.25" enable-background="new 0 0 32.5 40.25" xml:space="preserve">
<g>
	<defs>
		<rect id="SVGID_1_" width="32.5" height="40.25"/>
	</defs>
	<clipPath id="SVGID_2_">
		<use xlink:href="#SVGID_1_"  overflow="visible"/>
	</clipPath>
</g>
<polygon fill="#63605F" points="8.601,1.479 9.382,1.479 8.992,0.5 "/>
<polygon fill="#BB8240" points="23.555,38.75 16.18,36.125 8.991,38.75 8.991,0.5 23.555,0.5 "/>
<g>
	<defs>
		<rect id="SVGID_3_" width="32.5" height="40.25"/>
	</defs>
	<clipPath id="SVGID_4_">
		<use xlink:href="#SVGID_3_"  overflow="visible"/>
	</clipPath>
	<path clip-path="url(#SVGID_4_)" fill="#2173BA" d="M15.234,6.152c0.464-0.599,1.223-0.599,1.687,0
		c0.465,0.599,1.334,0.709,1.933,0.244s1.334-0.276,1.635,0.42c0.3,0.695,1.115,1.018,1.81,0.717
		c0.696-0.302,1.361,0.064,1.479,0.813c0.118,0.748,0.827,1.263,1.575,1.144c0.748-0.119,1.302,0.401,1.23,1.155
		c-0.072,0.754,0.487,1.429,1.241,1.5c0.754,0.072,1.161,0.713,0.904,1.425c-0.258,0.713,0.115,1.506,0.828,1.762
		c0.714,0.257,0.947,0.979,0.521,1.605c-0.426,0.627-0.261,1.487,0.365,1.913c0.627,0.425,0.675,1.183,0.105,1.684
		c-0.567,0.501-0.623,1.375-0.122,1.942c0.501,0.568,0.359,1.314-0.315,1.658c-0.676,0.344-0.946,1.177-0.603,1.853
		c0.345,0.675,0.021,1.361-0.718,1.526c-0.74,0.165-1.209,0.905-1.044,1.645c0.166,0.739-0.318,1.324-1.075,1.3
		s-1.396,0.576-1.419,1.333s-0.638,1.204-1.366,0.992c-0.728-0.212-1.494,0.21-1.706,0.938c-0.211,0.729-0.917,1.007-1.568,0.621
		c-0.652-0.386-1.501-0.168-1.886,0.484c-0.387,0.652-1.14,0.748-1.676,0.212c-0.535-0.536-1.411-0.536-1.947,0
		c-0.535,0.536-1.289,0.44-1.674-0.212c-0.385-0.652-1.234-0.87-1.886-0.484c-0.652,0.386-1.358,0.107-1.569-0.621
		c-0.211-0.728-0.979-1.149-1.706-0.938c-0.728,0.212-1.342-0.235-1.366-0.992c-0.023-0.757-0.662-1.357-1.419-1.333
		c-0.757,0.024-1.241-0.561-1.076-1.3c0.166-0.739-0.303-1.479-1.043-1.645c-0.739-0.165-1.063-0.852-0.719-1.526
		c0.344-0.676,0.074-1.509-0.601-1.853c-0.676-0.344-0.818-1.09-0.316-1.658c0.501-0.567,0.446-1.441-0.123-1.942
		c-0.568-0.501-0.521-1.259,0.106-1.684c0.627-0.426,0.791-1.286,0.365-1.913c-0.426-0.626-0.191-1.348,0.522-1.605
		c0.713-0.256,1.086-1.049,0.829-1.762c-0.258-0.712,0.149-1.353,0.904-1.425c0.754-0.071,1.313-0.746,1.241-1.5
		C5.501,9.891,6.055,9.371,6.803,9.49C7.551,9.609,8.26,9.094,8.378,8.346c0.119-0.749,0.784-1.115,1.479-0.813
		c0.695,0.301,1.51-0.022,1.811-0.717c0.3-0.696,1.036-0.885,1.634-0.42C13.901,6.861,14.77,6.751,15.234,6.152"/>
	<path clip-path="url(#SVGID_4_)" fill="#565655" d="M15.257,6.088c0.464-0.599,1.224-0.599,1.688,0
		c0.464,0.599,1.333,0.709,1.932,0.244s1.333-0.276,1.635,0.42c0.301,0.695,1.114,1.018,1.811,0.717
		c0.695-0.302,1.36,0.064,1.479,0.813c0.117,0.748,0.826,1.263,1.575,1.144c0.748-0.119,1.302,0.401,1.23,1.155
		c-0.072,0.755,0.487,1.43,1.241,1.501c0.754,0.071,1.16,0.712,0.903,1.424c-0.257,0.713,0.116,1.506,0.829,1.762
		c0.713,0.257,0.948,0.979,0.522,1.605c-0.427,0.627-0.263,1.488,0.363,1.913c0.628,0.425,0.676,1.183,0.107,1.684
		c-0.569,0.501-0.624,1.375-0.123,1.943c0.502,0.567,0.359,1.313-0.315,1.657c-0.676,0.345-0.946,1.178-0.603,1.853
		c0.345,0.675,0.021,1.361-0.718,1.525c-0.739,0.165-1.209,0.905-1.043,1.646c0.165,0.739-0.319,1.324-1.076,1.3
		s-1.396,0.576-1.419,1.333c-0.024,0.757-0.638,1.203-1.366,0.992c-0.727-0.212-1.495,0.21-1.706,0.938
		c-0.211,0.729-0.917,1.008-1.568,0.621c-0.652-0.386-1.501-0.168-1.887,0.484c-0.385,0.653-1.139,0.748-1.674,0.212
		c-0.536-0.536-1.412-0.536-1.948,0c-0.535,0.536-1.288,0.441-1.674-0.212c-0.385-0.652-1.234-0.87-1.886-0.484
		c-0.652,0.387-1.358,0.107-1.569-0.621C9.787,32.93,9.02,32.508,8.292,32.72c-0.728,0.211-1.342-0.235-1.365-0.992
		c-0.024-0.757-0.662-1.357-1.42-1.333c-0.757,0.024-1.241-0.561-1.075-1.3c0.165-0.74-0.304-1.48-1.044-1.646
		c-0.739-0.164-1.062-0.851-0.718-1.525c0.344-0.675,0.073-1.508-0.602-1.853c-0.675-0.344-0.818-1.09-0.316-1.657
		c0.501-0.568,0.446-1.442-0.123-1.943c-0.568-0.501-0.52-1.259,0.106-1.684C2.362,18.362,2.526,17.5,2.1,16.874
		c-0.426-0.626-0.191-1.348,0.522-1.605c0.713-0.256,1.086-1.049,0.829-1.762c-0.257-0.712,0.15-1.353,0.904-1.424
		c0.755-0.071,1.313-0.746,1.242-1.501C5.525,9.828,6.078,9.308,6.826,9.427c0.749,0.119,1.458-0.396,1.576-1.144
		C8.521,7.534,9.187,7.167,9.881,7.47c0.695,0.301,1.509-0.022,1.81-0.717c0.301-0.696,1.036-0.885,1.634-0.42
		C13.924,6.797,14.793,6.688,15.257,6.088"/>
	<path clip-path="url(#SVGID_4_)" fill="#FFFFFF" d="M16.078,8.078c-6.925,0-12.559,5.634-12.559,12.559
		c0,6.925,5.634,12.559,12.559,12.559c6.925,0,12.559-5.634,12.559-12.559C28.637,13.711,23.003,8.078,16.078,8.078"/>
	<path clip-path="url(#SVGID_4_)" fill="#5C5856" d="M29.059,20.637c0,7.155-5.802,12.957-12.957,12.957
		c-7.156,0-12.958-5.802-12.958-12.957c0-7.156,5.801-12.958,12.958-12.958C23.257,7.679,29.059,13.48,29.059,20.637"/>
	<path clip-path="url(#SVGID_4_)" fill="#FFFFFF" d="M16.078,33.246c-6.953,0-12.609-5.657-12.609-12.61
		c0-6.952,5.656-12.608,12.609-12.608s12.608,5.656,12.608,12.608C28.687,27.589,23.031,33.246,16.078,33.246 M16.078,8.293
		c-6.806,0-12.343,5.537-12.343,12.343c0,6.808,5.537,12.346,12.343,12.346c6.806,0,12.344-5.538,12.344-12.346
		C28.422,13.83,22.884,8.293,16.078,8.293"/>
	<path clip-path="url(#SVGID_4_)" fill="#BB8240" d="M27.524,20.637c0,6.321-5.125,11.446-11.446,11.446
		c-6.322,0-11.447-5.125-11.447-11.446c0-6.322,5.125-11.447,11.447-11.447C22.399,9.189,27.524,14.314,27.524,20.637"/>
	<polygon clip-path="url(#SVGID_4_)" fill="#FFFFFF" points="16.09,28.868 16.438,29.575 17.218,29.688 16.653,30.237 
		16.787,31.013 16.09,30.647 15.393,31.013 15.526,30.237 14.962,29.688 15.741,29.575 	"/>
	<polygon clip-path="url(#SVGID_4_)" fill="#FFFFFF" points="19.381,28.368 19.729,29.075 20.51,29.188 19.945,29.737 
		20.078,30.513 19.381,30.147 18.685,30.513 18.817,29.737 18.253,29.188 19.032,29.075 	"/>
	<polygon clip-path="url(#SVGID_4_)" fill="#FFFFFF" points="12.423,28.368 12.771,29.075 13.551,29.188 12.987,29.737 
		13.12,30.513 12.423,30.147 11.726,30.513 11.859,29.737 11.295,29.188 12.074,29.075 	"/>
	<path clip-path="url(#SVGID_4_)" fill="#FFFFFF" d="M16.946,27.543l1.551-7.284H15.65l-1.552,7.284h-2.79l2.809-13.177
		c-0.858,0.366-1.524,0.905-2,1.617c-0.477,0.713-0.714,1.59-0.714,2.63c0,0.511,0.078,0.905,0.236,1.182
		c0.025,0.051,0.038,0.095,0.038,0.133c-1.047,0-1.693-0.331-1.939-0.993c-0.088-0.24-0.133-0.536-0.133-0.89
		c0-0.649,0.205-1.273,0.615-1.872c0.826-1.23,2.075-2.141,3.746-2.734c0.801-0.284,1.611-0.426,2.431-0.426
		c0.265,0,0.523,0.013,0.775,0.038l-1.24,5.77h2.848l1.239-5.77h2.79l-3.074,14.492H16.946z"/>
</g>
<g>
	<defs>
		<rect id="SVGID_5_" width="32.5" height="40.25"/>
	</defs>
	<clipPath id="SVGID_6_">
		<use xlink:href="#SVGID_5_"  overflow="visible"/>
	</clipPath>
</g>
<g>
	<defs>
		<path id="SVGID_7_" d="M4.631,20.636c0,6.322,5.125,11.447,11.447,11.447s11.447-5.125,11.447-11.447
			c0-6.321-5.125-11.446-11.447-11.446S4.631,14.315,4.631,20.636"/>
	</defs>
	<clipPath id="SVGID_8_">
		<use xlink:href="#SVGID_7_"  overflow="visible"/>
	</clipPath>
</g>
<g>
	<defs>
		<rect id="SVGID_9_" width="32.5" height="40.25"/>
	</defs>
	<clipPath id="SVGID_10_">
		<use xlink:href="#SVGID_9_"  overflow="visible"/>
	</clipPath>
</g>
<g>
	<defs>
		<polygon id="SVGID_11_" points="23.543,38.528 16.168,35.903 8.98,38.528 8.98,0.278 23.543,0.278 		"/>
	</defs>
	<clipPath id="SVGID_12_">
		<use xlink:href="#SVGID_11_"  overflow="visible"/>
	</clipPath>
</g>
<g>
	<defs>
		<rect id="SVGID_13_" width="32.5" height="40.25"/>
	</defs>
	<clipPath id="SVGID_14_">
		<use xlink:href="#SVGID_13_"  overflow="visible"/>
	</clipPath>
</g>
<g>
	<defs>
		<path id="SVGID_15_" d="M4.608,20.414c0,6.322,5.125,11.448,11.446,11.448c6.323,0,11.447-5.126,11.447-11.448
			S22.377,8.968,16.054,8.968C9.733,8.968,4.608,14.092,4.608,20.414"/>
	</defs>
	<clipPath id="SVGID_16_">
		<use xlink:href="#SVGID_15_"  overflow="visible"/>
	</clipPath>
</g>
<g>
	<defs>
		<rect id="SVGID_17_" width="32.5" height="40.25"/>
	</defs>
	<clipPath id="SVGID_18_">
		<use xlink:href="#SVGID_17_"  overflow="visible"/>
	</clipPath>
</g>
</svg>
